<svg xmlns="http://www.w3.org/2000/svg" width="240" height="240" viewBox="0 0 240 240">

  <!-- Large poppy flower at (72,90) -->
  <g transform="translate(72,90)">
    <ellipse cx="0" cy="-32" rx="14" ry="26" fill="rgba(42,75,195,0.90)" transform="rotate(0)"/>
    <ellipse cx="0" cy="-32" rx="14" ry="26" fill="rgba(28,58,178,0.84)" transform="rotate(51.4)"/>
    <ellipse cx="0" cy="-32" rx="14" ry="26" fill="rgba(42,75,195,0.90)" transform="rotate(102.8)"/>
    <ellipse cx="0" cy="-32" rx="14" ry="26" fill="rgba(28,58,178,0.84)" transform="rotate(154.3)"/>
    <ellipse cx="0" cy="-32" rx="14" ry="26" fill="rgba(42,75,195,0.90)" transform="rotate(205.7)"/>
    <ellipse cx="0" cy="-32" rx="14" ry="26" fill="rgba(28,58,178,0.84)" transform="rotate(257.1)"/>
    <ellipse cx="0" cy="-32" rx="14" ry="26" fill="rgba(42,75,195,0.90)" transform="rotate(308.6)"/>
    <circle r="17" fill="rgba(14,34,145,0.95)"/>
    <circle r="9"  fill="rgba(55,90,210,0.96)"/>
    <circle r="4"  fill="rgba(14,34,145,0.90)"/>
  </g>

  <!-- Pink flowers -->
  <g transform="translate(178,40)">
    <circle r="14"  fill="rgba(230,65,150,0.87)"/>
    <circle r="6"   fill="rgba(205,20,78,0.94)"/>
  </g>
  <g transform="translate(162,148)">
    <circle r="12"  fill="rgba(230,65,150,0.83)"/>
    <circle r="5.5" fill="rgba(205,20,78,0.91)"/>
  </g>
  <g transform="translate(208,180)">
    <circle r="9"   fill="rgba(230,65,150,0.78)"/>
    <circle r="4"   fill="rgba(205,20,78,0.88)"/>
  </g>
  <g transform="translate(35,185)">
    <circle r="11"  fill="rgba(230,65,150,0.82)"/>
    <circle r="5"   fill="rgba(205,20,78,0.91)"/>
  </g>
  <g transform="translate(116,222)">
    <circle r="8.5" fill="rgba(230,65,150,0.77)"/>
    <circle r="3.8" fill="rgba(205,20,78,0.87)"/>
  </g>
  <g transform="translate(230,106)">
    <circle r="7.5" fill="rgba(230,65,150,0.74)"/>
    <circle r="3.3" fill="rgba(205,20,78,0.84)"/>
  </g>
  <g transform="translate(150,10)">
    <circle r="10"  fill="rgba(230,65,150,0.80)"/>
    <circle r="4.5" fill="rgba(205,20,78,0.91)"/>
  </g>
  <g transform="translate(8,50)">
    <circle r="8"   fill="rgba(230,65,150,0.75)"/>
    <circle r="3.5" fill="rgba(205,20,78,0.85)"/>
  </g>

  <!-- Green fans -->
  <g transform="translate(195,72) rotate(-15)">
    <line x1="0" y1="0" x2="-20" y2="-25" stroke="rgba(30,165,70,0.88)" stroke-width="4.5" stroke-linecap="round"/>
    <line x1="0" y1="0" x2="-8"  y2="-28" stroke="rgba(30,165,70,0.88)" stroke-width="4.5" stroke-linecap="round"/>
    <line x1="0" y1="0" x2="4"   y2="-29" stroke="rgba(30,165,70,0.88)" stroke-width="4.5" stroke-linecap="round"/>
    <line x1="0" y1="0" x2="16"  y2="-26" stroke="rgba(30,165,70,0.88)" stroke-width="4.5" stroke-linecap="round"/>
    <line x1="0" y1="0" x2="25"  y2="-20" stroke="rgba(30,165,70,0.88)" stroke-width="4.5" stroke-linecap="round"/>
  </g>
  <g transform="translate(18,236) rotate(12)">
    <line x1="0" y1="0" x2="-18" y2="-22" stroke="rgba(30,165,70,0.82)" stroke-width="4" stroke-linecap="round"/>
    <line x1="0" y1="0" x2="-6"  y2="-26" stroke="rgba(30,165,70,0.82)" stroke-width="4" stroke-linecap="round"/>
    <line x1="0" y1="0" x2="5"   y2="-27" stroke="rgba(30,165,70,0.82)" stroke-width="4" stroke-linecap="round"/>
    <line x1="0" y1="0" x2="15"  y2="-24" stroke="rgba(30,165,70,0.82)" stroke-width="4" stroke-linecap="round"/>
    <line x1="0" y1="0" x2="22"  y2="-18" stroke="rgba(30,165,70,0.82)" stroke-width="4" stroke-linecap="round"/>
  </g>

  <!-- Extra small dots -->
  <circle cx="130" cy="16"  r="5.5" fill="rgba(230,65,150,0.64)"/>
  <circle cx="222" cy="145" r="6"   fill="rgba(230,65,150,0.62)"/>
  <circle cx="58"  cy="152" r="4.5" fill="rgba(230,65,150,0.58)"/>
  <circle cx="188" cy="230" r="5.5" fill="rgba(230,65,150,0.62)"/>
  <circle cx="5"   cy="120" r="4.5" fill="rgba(230,65,150,0.58)"/>
  <circle cx="92"  cy="6"   r="5"   fill="rgba(230,65,150,0.62)"/>
  <circle cx="236" cy="48"  r="4"   fill="rgba(230,65,150,0.56)"/>

</svg>
